<svg width="16" height="21" viewBox="0 0 16 21" fill="none" xmlns="http://www.w3.org/2000/svg">
<path fill-rule="evenodd" clip-rule="evenodd" d="M3.9978 0.0141602C1.7888 0.0141602 -0.00219727 1.80516 -0.00219727 4.01416V16.0142C-0.00219727 18.2232 1.7888 20.0142 3.9978 20.0142H11.9978C14.2068 20.0142 15.9978 18.2232 15.9978 16.0142V4.01416C15.9978 1.80516 14.2068 0.0141602 11.9978 0.0141602H3.9978ZM3.9978 2.01416H11.9978C13.1028 2.01416 13.9978 2.90916 13.9978 4.01416V16.0142C13.9978 17.1192 13.1028 18.0142 11.9978 18.0142H3.9978C2.8928 18.0142 1.9978 17.1192 1.9978 16.0142V4.01416C1.9978 2.90916 2.8928 2.01416 3.9978 2.01416ZM3.9978 5.01416C3.9978 4.46216 4.4458 4.01416 4.9978 4.01416H10.9978C11.5498 4.01416 11.9978 4.46216 11.9978 5.01416V6.01416C11.9978 6.56616 11.5498 7.01416 10.9978 7.01416H4.9978C4.4458 7.01416 3.9978 6.56616 3.9978 6.01416V5.01416ZM4.9978 8.01416C4.4458 8.01416 3.9978 8.46216 3.9978 9.01416C3.9978 9.56616 4.4458 10.0142 4.9978 10.0142C5.5498 10.0142 5.9978 9.56616 5.9978 9.01416C5.9978 8.46216 5.5498 8.01416 4.9978 8.01416ZM6.9978 9.01416C6.9978 8.46216 7.4458 8.01416 7.9978 8.01416C8.5498 8.01416 8.9978 8.46216 8.9978 9.01416C8.9978 9.56616 8.5498 10.0142 7.9978 10.0142C7.4458 10.0142 6.9978 9.56616 6.9978 9.01416ZM10.9978 8.01416C10.4458 8.01416 9.9978 8.46216 9.9978 9.01416C9.9978 9.56616 10.4458 10.0142 10.9978 10.0142C11.5498 10.0142 11.9978 9.56616 11.9978 9.01416C11.9978 8.46216 11.5498 8.01416 10.9978 8.01416ZM3.9978 12.0142C3.9978 11.4622 4.4458 11.0142 4.9978 11.0142C5.5498 11.0142 5.9978 11.4622 5.9978 12.0142C5.9978 12.5662 5.5498 13.0142 4.9978 13.0142C4.4458 13.0142 3.9978 12.5662 3.9978 12.0142ZM7.9978 11.0142C7.4458 11.0142 6.9978 11.4622 6.9978 12.0142C6.9978 12.5662 7.4458 13.0142 7.9978 13.0142C8.5498 13.0142 8.9978 12.5662 8.9978 12.0142C8.9978 11.4622 8.5498 11.0142 7.9978 11.0142ZM9.9978 12.0142C9.9978 11.4622 10.4458 11.0142 10.9978 11.0142C11.5498 11.0142 11.9978 11.4622 11.9978 12.0142V15.0142C11.9978 15.5662 11.5498 16.0142 10.9978 16.0142C10.4458 16.0142 9.9978 15.5662 9.9978 15.0142V12.0142ZM4.9978 14.0142C4.4458 14.0142 3.9978 14.4622 3.9978 15.0142C3.9978 15.5662 4.4458 16.0142 4.9978 16.0142C5.5498 16.0142 5.9978 15.5662 5.9978 15.0142C5.9978 14.4622 5.5498 14.0142 4.9978 14.0142ZM6.9978 15.0142C6.9978 14.4622 7.4458 14.0142 7.9978 14.0142C8.5498 14.0142 8.9978 14.4622 8.9978 15.0142C8.9978 15.5662 8.5498 16.0142 7.9978 16.0142C7.4458 16.0142 6.9978 15.5662 6.9978 15.0142Z" fill="#E84D4B"/>
</svg>
