<svg width="18" height="18" viewBox="0 0 18 18" fill="none" xmlns="http://www.w3.org/2000/svg">
<path d="M3.74557 2.92981C3.55365 2.92981 3.35295 2.99431 3.20647 3.14056C2.9136 3.43381 2.9136 3.9258 3.20647 4.21905L7.91744 8.92981L3.20647 13.6406C2.9136 13.9338 2.9136 14.4258 3.20647 14.7191C3.49942 15.0116 3.99172 15.0116 4.28467 14.7191L8.99556 10.0083L13.7065 14.7191C13.9994 15.0116 14.4917 15.0116 14.7847 14.7191C15.0775 14.4258 15.0775 13.9338 14.7847 13.6406L10.0737 8.92981L14.7847 4.21905C15.0775 3.9258 15.0775 3.43381 14.7847 3.14056C14.6382 2.99431 14.4374 2.92981 14.2456 2.92981C14.0536 2.92981 13.853 2.99431 13.7065 3.14056L8.99556 7.85131L4.28467 3.14056C4.13819 2.99431 3.93749 2.92981 3.74557 2.92981Z" fill="black"/>
</svg>
